<?xml version="1.0" standalone="no"?>
<!DOCTYPE svg PUBLIC "-//W3C//DTD SVG 20010904//EN"
 "http://www.w3.org/TR/2001/REC-SVG-20010904/DTD/svg10.dtd">
<svg version="1.0" xmlns="http://www.w3.org/2000/svg"
 width="512.000000pt" height="512.000000pt" viewBox="0 0 512.000000 512.000000"
 preserveAspectRatio="xMidYMid meet">
<metadata>
Created by potrace 1.14, written by Peter Selinger 2001-2017
</metadata>
<g transform="translate(0.000000,512.000000) scale(0.100000,-0.100000)"
fill="#000000" stroke="none">
<path d="M2450 4116 c0 -22 -5 -25 -55 -31 -49 -7 -55 -10 -55 -31 0 -22 -4
-24 -55 -24 -52 0 -55 -1 -55 -25 0 -25 1 -25 80 -25 79 0 80 0 80 25 0 24 3
25 60 25 57 0 60 1 60 25 0 23 3 25 49 25 44 0 50 -3 53 -22 3 -26 43 -34 115
-23 33 5 43 11 43 25 0 16 -9 19 -52 22 -49 3 -53 5 -56 31 l-3 27 -105 0
c-103 0 -104 0 -104 -24z"/>
<path d="M2780 4005 c0 -21 5 -25 30 -25 25 0 30 4 30 25 0 21 -5 25 -30 25
-25 0 -30 -4 -30 -25z"/>
<path d="M2130 3950 c0 -17 7 -20 50 -20 43 0 50 3 50 20 0 17 -7 20 -50 20
-43 0 -50 -3 -50 -20z"/>
<path d="M3990 3455 c0 -18 5 -25 20 -25 15 0 20 7 20 25 0 18 -5 25 -20 25
-15 0 -20 -7 -20 -25z"/>
<path d="M3550 3405 c0 -18 5 -25 20 -25 15 0 20 7 20 25 0 18 -5 25 -20 25
-15 0 -20 -7 -20 -25z"/>
<path d="M3880 3345 c0 -18 5 -25 20 -25 15 0 20 7 20 25 0 18 -5 25 -20 25
-15 0 -20 -7 -20 -25z"/>
<path d="M3880 3185 c0 -18 5 -25 20 -25 15 0 20 7 20 25 0 18 -5 25 -20 25
-15 0 -20 -7 -20 -25z"/>
<path d="M1310 3075 c0 -20 5 -25 25 -25 20 0 25 5 25 25 0 20 -5 25 -25 25
-20 0 -25 -5 -25 -25z"/>
<path d="M1460 3075 c0 -23 4 -25 48 -25 26 0 64 -3 85 -6 l37 -7 0 -348 0
-349 25 0 25 0 0 -440 0 -440 30 0 c30 0 30 -1 30 -55 l0 -55 110 0 110 0 0
30 c0 25 4 30 24 30 19 0 25 6 28 28 2 19 9 28 24 30 16 2 23 12 28 40 3 20 6
351 6 735 l0 697 25 0 c20 0 25 5 25 25 0 20 -5 25 -25 25 -21 0 -25 5 -25 30
l0 30 110 0 110 0 0 -55 c0 -52 1 -55 25 -55 l25 0 0 -258 c0 -143 3 -314 7
-380 5 -110 8 -122 25 -122 17 0 18 -15 18 -305 0 -298 0 -305 -20 -305 -15 0
-20 -7 -20 -25 0 -18 5 -25 20 -25 16 0 20 -7 20 -30 0 -27 3 -30 30 -30 30 0
30 -1 30 -55 l0 -56 108 3 107 3 3 53 c3 47 5 52 26 52 21 0 24 6 30 50 4 28
4 55 0 61 -3 6 -3 305 1 665 7 613 9 654 25 654 19 0 30 42 30 118 l0 42 104
0 103 0 7 -37 c3 -21 6 -98 6 -170 l0 -133 25 0 25 0 0 -625 0 -625 30 0 c30
0 30 -1 30 -55 l0 -55 98 0 c53 0 114 3 135 6 37 7 37 7 37 55 0 45 2 49 24
49 19 0 24 6 30 38 3 20 6 340 6 710 l0 672 25 0 c25 0 25 1 25 85 l0 85 165
0 165 0 0 25 0 25 -1180 0 -1180 0 0 -25z"/>
<path d="M3710 2965 c0 -20 5 -25 25 -25 20 0 25 5 25 25 0 20 -5 25 -25 25
-20 0 -25 -5 -25 -25z"/>
</g>
</svg>
